<mxfile host="app.diagrams.net" modified="2023-12-16T00:23:45.493Z" agent="Mozilla/5.0 (Windows NT 10.0; Win64; x64; rv:120.0) Gecko/20100101 Firefox/120.0" etag="fMYo_l7a0vr54Ds9ey5p" version="22.1.11" type="github">
  <diagram name="P치gina-1" id="gVJ-1TvxZQ9Q56XMVppU">
    <mxGraphModel dx="1386" dy="715" grid="1" gridSize="10" guides="1" tooltips="1" connect="1" arrows="1" fold="1" page="1" pageScale="1" pageWidth="850" pageHeight="1100" math="0" shadow="0">
      <root>
        <mxCell id="0" />
        <mxCell id="1" parent="0" />
        <mxCell id="kU5P1Gjw6cB3Nd-AVzcD-23" style="edgeStyle=orthogonalEdgeStyle;rounded=0;orthogonalLoop=1;jettySize=auto;html=1;exitX=0.5;exitY=1;exitDx=0;exitDy=0;entryX=0.5;entryY=0;entryDx=0;entryDy=0;" edge="1" parent="1" source="kU5P1Gjw6cB3Nd-AVzcD-1" target="kU5P1Gjw6cB3Nd-AVzcD-6">
          <mxGeometry relative="1" as="geometry" />
        </mxCell>
        <mxCell id="kU5P1Gjw6cB3Nd-AVzcD-25" style="edgeStyle=orthogonalEdgeStyle;rounded=0;orthogonalLoop=1;jettySize=auto;html=1;exitX=0.5;exitY=1;exitDx=0;exitDy=0;entryX=0.5;entryY=0;entryDx=0;entryDy=0;" edge="1" parent="1" source="kU5P1Gjw6cB3Nd-AVzcD-1" target="kU5P1Gjw6cB3Nd-AVzcD-14">
          <mxGeometry relative="1" as="geometry" />
        </mxCell>
        <mxCell id="kU5P1Gjw6cB3Nd-AVzcD-26" style="edgeStyle=orthogonalEdgeStyle;rounded=0;orthogonalLoop=1;jettySize=auto;html=1;exitX=0.5;exitY=1;exitDx=0;exitDy=0;entryX=0.5;entryY=0;entryDx=0;entryDy=0;" edge="1" parent="1" source="kU5P1Gjw6cB3Nd-AVzcD-1" target="kU5P1Gjw6cB3Nd-AVzcD-18">
          <mxGeometry relative="1" as="geometry" />
        </mxCell>
        <mxCell id="kU5P1Gjw6cB3Nd-AVzcD-27" style="edgeStyle=orthogonalEdgeStyle;rounded=0;orthogonalLoop=1;jettySize=auto;html=1;exitX=0.5;exitY=1;exitDx=0;exitDy=0;entryX=0.5;entryY=0;entryDx=0;entryDy=0;" edge="1" parent="1" source="kU5P1Gjw6cB3Nd-AVzcD-1" target="kU5P1Gjw6cB3Nd-AVzcD-2">
          <mxGeometry relative="1" as="geometry" />
        </mxCell>
        <mxCell id="kU5P1Gjw6cB3Nd-AVzcD-1" value="Personal Administrativo" style="rounded=1;whiteSpace=wrap;html=1;" vertex="1" parent="1">
          <mxGeometry x="365" y="60" width="120" height="60" as="geometry" />
        </mxCell>
        <mxCell id="kU5P1Gjw6cB3Nd-AVzcD-28" style="edgeStyle=orthogonalEdgeStyle;rounded=0;orthogonalLoop=1;jettySize=auto;html=1;exitX=0.5;exitY=1;exitDx=0;exitDy=0;entryX=0;entryY=0.5;entryDx=0;entryDy=0;" edge="1" parent="1" source="kU5P1Gjw6cB3Nd-AVzcD-2" target="kU5P1Gjw6cB3Nd-AVzcD-3">
          <mxGeometry relative="1" as="geometry" />
        </mxCell>
        <mxCell id="kU5P1Gjw6cB3Nd-AVzcD-2" value="Historia Clinica" style="rounded=1;whiteSpace=wrap;html=1;" vertex="1" parent="1">
          <mxGeometry x="30" y="160" width="120" height="60" as="geometry" />
        </mxCell>
        <mxCell id="kU5P1Gjw6cB3Nd-AVzcD-29" style="edgeStyle=orthogonalEdgeStyle;rounded=0;orthogonalLoop=1;jettySize=auto;html=1;exitX=0;exitY=0.5;exitDx=0;exitDy=0;entryX=0;entryY=0.5;entryDx=0;entryDy=0;" edge="1" parent="1" source="kU5P1Gjw6cB3Nd-AVzcD-3" target="kU5P1Gjw6cB3Nd-AVzcD-4">
          <mxGeometry relative="1" as="geometry" />
        </mxCell>
        <mxCell id="kU5P1Gjw6cB3Nd-AVzcD-3" value="Buscar Paciente" style="rounded=1;whiteSpace=wrap;html=1;" vertex="1" parent="1">
          <mxGeometry x="70" y="240" width="120" height="60" as="geometry" />
        </mxCell>
        <mxCell id="kU5P1Gjw6cB3Nd-AVzcD-30" style="edgeStyle=orthogonalEdgeStyle;rounded=0;orthogonalLoop=1;jettySize=auto;html=1;exitX=0;exitY=0.5;exitDx=0;exitDy=0;entryX=0;entryY=0.5;entryDx=0;entryDy=0;" edge="1" parent="1" source="kU5P1Gjw6cB3Nd-AVzcD-4" target="kU5P1Gjw6cB3Nd-AVzcD-9">
          <mxGeometry relative="1" as="geometry" />
        </mxCell>
        <mxCell id="kU5P1Gjw6cB3Nd-AVzcD-4" value="Ingresar Paciente" style="rounded=1;whiteSpace=wrap;html=1;" vertex="1" parent="1">
          <mxGeometry x="70" y="320" width="120" height="60" as="geometry" />
        </mxCell>
        <mxCell id="kU5P1Gjw6cB3Nd-AVzcD-31" style="edgeStyle=orthogonalEdgeStyle;rounded=0;orthogonalLoop=1;jettySize=auto;html=1;exitX=0.5;exitY=1;exitDx=0;exitDy=0;entryX=0;entryY=0.5;entryDx=0;entryDy=0;" edge="1" parent="1" source="kU5P1Gjw6cB3Nd-AVzcD-6" target="kU5P1Gjw6cB3Nd-AVzcD-7">
          <mxGeometry relative="1" as="geometry" />
        </mxCell>
        <mxCell id="kU5P1Gjw6cB3Nd-AVzcD-6" value="Atencion Urgencia" style="rounded=1;whiteSpace=wrap;html=1;" vertex="1" parent="1">
          <mxGeometry x="200" y="160" width="120" height="60" as="geometry" />
        </mxCell>
        <mxCell id="kU5P1Gjw6cB3Nd-AVzcD-32" style="edgeStyle=orthogonalEdgeStyle;rounded=0;orthogonalLoop=1;jettySize=auto;html=1;exitX=0;exitY=0.5;exitDx=0;exitDy=0;entryX=0;entryY=0.5;entryDx=0;entryDy=0;" edge="1" parent="1" source="kU5P1Gjw6cB3Nd-AVzcD-7" target="kU5P1Gjw6cB3Nd-AVzcD-8">
          <mxGeometry relative="1" as="geometry" />
        </mxCell>
        <mxCell id="kU5P1Gjw6cB3Nd-AVzcD-7" value="Ingreso" style="rounded=1;whiteSpace=wrap;html=1;" vertex="1" parent="1">
          <mxGeometry x="240" y="240" width="120" height="60" as="geometry" />
        </mxCell>
        <mxCell id="kU5P1Gjw6cB3Nd-AVzcD-8" value="Alta" style="rounded=1;whiteSpace=wrap;html=1;" vertex="1" parent="1">
          <mxGeometry x="240" y="320" width="120" height="60" as="geometry" />
        </mxCell>
        <mxCell id="kU5P1Gjw6cB3Nd-AVzcD-9" value="Actualizar Paciente" style="rounded=1;whiteSpace=wrap;html=1;" vertex="1" parent="1">
          <mxGeometry x="70" y="400" width="120" height="60" as="geometry" />
        </mxCell>
        <mxCell id="kU5P1Gjw6cB3Nd-AVzcD-33" style="edgeStyle=orthogonalEdgeStyle;rounded=0;orthogonalLoop=1;jettySize=auto;html=1;exitX=0.5;exitY=1;exitDx=0;exitDy=0;entryX=0;entryY=0.5;entryDx=0;entryDy=0;" edge="1" parent="1" source="kU5P1Gjw6cB3Nd-AVzcD-10" target="kU5P1Gjw6cB3Nd-AVzcD-11">
          <mxGeometry relative="1" as="geometry" />
        </mxCell>
        <mxCell id="kU5P1Gjw6cB3Nd-AVzcD-10" value="Hospitalizaci칩n" style="rounded=1;whiteSpace=wrap;html=1;" vertex="1" parent="1">
          <mxGeometry x="370" y="160" width="120" height="60" as="geometry" />
        </mxCell>
        <mxCell id="kU5P1Gjw6cB3Nd-AVzcD-34" style="edgeStyle=orthogonalEdgeStyle;rounded=0;orthogonalLoop=1;jettySize=auto;html=1;exitX=0;exitY=0.5;exitDx=0;exitDy=0;entryX=0;entryY=0.5;entryDx=0;entryDy=0;" edge="1" parent="1" source="kU5P1Gjw6cB3Nd-AVzcD-11" target="kU5P1Gjw6cB3Nd-AVzcD-12">
          <mxGeometry relative="1" as="geometry" />
        </mxCell>
        <mxCell id="kU5P1Gjw6cB3Nd-AVzcD-11" value="Ingreso" style="rounded=1;whiteSpace=wrap;html=1;" vertex="1" parent="1">
          <mxGeometry x="410" y="240" width="120" height="60" as="geometry" />
        </mxCell>
        <mxCell id="kU5P1Gjw6cB3Nd-AVzcD-35" style="edgeStyle=orthogonalEdgeStyle;rounded=0;orthogonalLoop=1;jettySize=auto;html=1;exitX=0;exitY=0.5;exitDx=0;exitDy=0;entryX=0;entryY=0.5;entryDx=0;entryDy=0;" edge="1" parent="1" source="kU5P1Gjw6cB3Nd-AVzcD-12" target="kU5P1Gjw6cB3Nd-AVzcD-13">
          <mxGeometry relative="1" as="geometry" />
        </mxCell>
        <mxCell id="kU5P1Gjw6cB3Nd-AVzcD-12" value="Alta" style="rounded=1;whiteSpace=wrap;html=1;" vertex="1" parent="1">
          <mxGeometry x="410" y="320" width="120" height="60" as="geometry" />
        </mxCell>
        <mxCell id="kU5P1Gjw6cB3Nd-AVzcD-13" value="Gesti칩n Camas" style="rounded=1;whiteSpace=wrap;html=1;" vertex="1" parent="1">
          <mxGeometry x="410" y="400" width="120" height="60" as="geometry" />
        </mxCell>
        <mxCell id="kU5P1Gjw6cB3Nd-AVzcD-37" style="edgeStyle=orthogonalEdgeStyle;rounded=0;orthogonalLoop=1;jettySize=auto;html=1;exitX=0.5;exitY=1;exitDx=0;exitDy=0;entryX=0;entryY=0.5;entryDx=0;entryDy=0;" edge="1" parent="1" source="kU5P1Gjw6cB3Nd-AVzcD-14" target="kU5P1Gjw6cB3Nd-AVzcD-15">
          <mxGeometry relative="1" as="geometry" />
        </mxCell>
        <mxCell id="kU5P1Gjw6cB3Nd-AVzcD-14" value="Centro Quirurgico" style="rounded=1;whiteSpace=wrap;html=1;" vertex="1" parent="1">
          <mxGeometry x="530" y="160" width="120" height="60" as="geometry" />
        </mxCell>
        <mxCell id="kU5P1Gjw6cB3Nd-AVzcD-38" style="edgeStyle=orthogonalEdgeStyle;rounded=0;orthogonalLoop=1;jettySize=auto;html=1;exitX=0;exitY=0.5;exitDx=0;exitDy=0;entryX=0;entryY=0.5;entryDx=0;entryDy=0;" edge="1" parent="1" source="kU5P1Gjw6cB3Nd-AVzcD-15" target="kU5P1Gjw6cB3Nd-AVzcD-16">
          <mxGeometry relative="1" as="geometry" />
        </mxCell>
        <mxCell id="kU5P1Gjw6cB3Nd-AVzcD-15" value="Ingreso" style="rounded=1;whiteSpace=wrap;html=1;" vertex="1" parent="1">
          <mxGeometry x="570" y="240" width="120" height="60" as="geometry" />
        </mxCell>
        <mxCell id="kU5P1Gjw6cB3Nd-AVzcD-39" style="edgeStyle=orthogonalEdgeStyle;rounded=0;orthogonalLoop=1;jettySize=auto;html=1;exitX=0;exitY=0.5;exitDx=0;exitDy=0;entryX=0;entryY=0.5;entryDx=0;entryDy=0;" edge="1" parent="1" source="kU5P1Gjw6cB3Nd-AVzcD-16" target="kU5P1Gjw6cB3Nd-AVzcD-17">
          <mxGeometry relative="1" as="geometry" />
        </mxCell>
        <mxCell id="kU5P1Gjw6cB3Nd-AVzcD-16" value="Gesti칩n Pabellones" style="rounded=1;whiteSpace=wrap;html=1;" vertex="1" parent="1">
          <mxGeometry x="570" y="320" width="120" height="60" as="geometry" />
        </mxCell>
        <mxCell id="kU5P1Gjw6cB3Nd-AVzcD-17" value="Alta" style="rounded=1;whiteSpace=wrap;html=1;" vertex="1" parent="1">
          <mxGeometry x="570" y="400" width="120" height="60" as="geometry" />
        </mxCell>
        <mxCell id="kU5P1Gjw6cB3Nd-AVzcD-40" style="edgeStyle=orthogonalEdgeStyle;rounded=0;orthogonalLoop=1;jettySize=auto;html=1;exitX=0.5;exitY=1;exitDx=0;exitDy=0;entryX=0;entryY=0.5;entryDx=0;entryDy=0;" edge="1" parent="1" source="kU5P1Gjw6cB3Nd-AVzcD-18" target="kU5P1Gjw6cB3Nd-AVzcD-19">
          <mxGeometry relative="1" as="geometry" />
        </mxCell>
        <mxCell id="kU5P1Gjw6cB3Nd-AVzcD-18" value="Atenciones M칠dicas" style="rounded=1;whiteSpace=wrap;html=1;" vertex="1" parent="1">
          <mxGeometry x="690" y="160" width="120" height="60" as="geometry" />
        </mxCell>
        <mxCell id="kU5P1Gjw6cB3Nd-AVzcD-19" value="Citados por D칤a" style="rounded=1;whiteSpace=wrap;html=1;" vertex="1" parent="1">
          <mxGeometry x="730" y="240" width="120" height="60" as="geometry" />
        </mxCell>
        <mxCell id="kU5P1Gjw6cB3Nd-AVzcD-24" style="edgeStyle=orthogonalEdgeStyle;rounded=0;orthogonalLoop=1;jettySize=auto;html=1;exitX=0.5;exitY=1;exitDx=0;exitDy=0;entryX=0.575;entryY=0.033;entryDx=0;entryDy=0;entryPerimeter=0;" edge="1" parent="1" source="kU5P1Gjw6cB3Nd-AVzcD-1" target="kU5P1Gjw6cB3Nd-AVzcD-10">
          <mxGeometry relative="1" as="geometry" />
        </mxCell>
      </root>
    </mxGraphModel>
  </diagram>
</mxfile>
